HIERARCHY
ROOT Hips
{
	OFFSET 0.000000 8.830580 0.000000
	CHANNELS 6 Xposition Yposition Zposition Zrotation Yrotation Xrotation 
	JOINT Spine
	{
		OFFSET 0.000000 0.010000 0.000000
		CHANNELS 3 Zrotation Yrotation Xrotation
		JOINT Spine1
		{
			OFFSET 0.000000 2.459130 0.000000
			CHANNELS 3 Zrotation Yrotation Xrotation
			JOINT Neck
			{
				OFFSET 0.000000 2.484630 0.000000
				CHANNELS 3 Zrotation Yrotation Xrotation
				JOINT Head_virtual
				{
					OFFSET 0.000000 0.000000 0.000000
					CHANNELS 3 Zrotation Yrotation Xrotation
					JOINT Head
					{
						OFFSET 0.000000 0.927525 0.000000
						CHANNELS 3 Zrotation Yrotation Xrotation
						End Site
						{
							OFFSET 0.000000 0.000000 0.000000
						}
					}
				}
				JOINT LeftUpArm_virtual
				{
					OFFSET 0.000000 0.000000 0.000000
					CHANNELS 3 Zrotation Yrotation Xrotation
					JOINT LeftUpArm
					{
						OFFSET 1.248820 0.000000 0.000000
						CHANNELS 3 Zrotation Yrotation Xrotation
						JOINT LeftForeArm
						{
							OFFSET 2.597580 0.000000 0.000000
							CHANNELS 3 Zrotation Yrotation Xrotation
							JOINT LeftHand
							{
								OFFSET 2.455420 0.000000 0.000000
								CHANNELS 3 Zrotation Yrotation Xrotation
								End Site
								{
									OFFSET 0.000000 0.000000 0.000000
								}
							}
						}
					}
				}
				JOINT RightUpArm_virtual
				{
					OFFSET -0.000000 -0.000000 -0.000000
					CHANNELS 3 Zrotation Yrotation Xrotation
					JOINT RightUpArm
					{
						OFFSET -1.248820 -0.000000 -0.000000
						CHANNELS 3 Zrotation Yrotation Xrotation
						JOINT RightForeArm
						{
							OFFSET -2.597580 -0.000000 -0.000000
							CHANNELS 3 Zrotation Yrotation Xrotation
							JOINT RightHand
							{
								OFFSET -2.455420 -0.000000 -0.000000
								CHANNELS 3 Zrotation Yrotation Xrotation
								End Site
								{
									OFFSET 0.000000 0.000000 0.000000
								}
							}
						}
					}
				}
			}
		}
	}
	JOINT LeftUpLeg
	{
		OFFSET 1.271939 0.000000 0.000000
		CHANNELS 3 Zrotation Yrotation Xrotation
		JOINT LeftLowLeg
		{
			OFFSET 0.000000 -4.342910 0.000000
			CHANNELS 3 Zrotation Yrotation Xrotation
			JOINT LeftFoot
			{
				OFFSET 0.000000 -4.487670 0.000000
				CHANNELS 3 Zrotation Yrotation Xrotation
				JOINT LeftToeBase
				{
					OFFSET 0.000000 0.000000 1.515070
					CHANNELS 3 Zrotation Yrotation Xrotation
					End Site
					{
						OFFSET 0.000000 0.000000 0.000000
					}
				}
			}
		}
	}
	JOINT RightUpLeg
	{
		OFFSET -1.271939 0.000000 0.000000
		CHANNELS 3 Zrotation Yrotation Xrotation
		JOINT RightLowLeg
		{
			OFFSET 0.000000 -4.342910 0.000000
			CHANNELS 3 Zrotation Yrotation Xrotation
			JOINT RightFoot
			{
				OFFSET 0.000000 -4.487670 0.000000
				CHANNELS 3 Zrotation Yrotation Xrotation
				JOINT RightToeBase
				{
					OFFSET 0.000000 0.000000 1.515070
					CHANNELS 3 Zrotation Yrotation Xrotation
					End Site
					{
						OFFSET 0.000000 0.000000 0.000000
					}
				}
			}
		}
	}
}
MOTION
Frames: 14
Frame Time: 0.041667
-17.655743 9.212464 41.868524 -175.083405 -37.824235 -175.276302 5.254500 -3.518925 -9.401306 8.088987 -4.340286 19.764230 0.000000 0.000000 0.000000 -11.189753 -10.294781 8.434858 3.082297 13.603400 -43.433761 -19.779600 5.146820 3.662720 -48.245602 -10.780600 28.779400 0.000000 -36.413300 0.000000 15.675700 10.030200 3.150950 21.120100 -3.648380 6.100680 38.411400 13.717200 14.156000 0.000000 24.730000 0.000000 -8.334740 -4.025500 -4.606520 11.094591 -2.008054 -17.466471 0.000000 0.000000 16.888599 6.225120 -2.826133 4.364719 0.000000 0.000000 -36.906900 9.702428 -0.995379 -8.267586 0.000000 0.000000 4.610300 4.275852 -8.359238 11.127018 0.000000 0.000000 -26.401100 
-17.662084 9.208106 41.860287 -174.889443 -37.286510 -175.179849 5.412740 -3.428848 -9.424666 7.992925 -4.280047 19.577317 0.000000 0.000000 0.000000 -10.867347 -10.593197 8.594818 2.609091 14.041879 -43.720180 -19.569901 5.246190 3.617650 -48.389500 -10.690700 28.624901 0.000000 -36.411098 0.000000 15.768900 10.015300 3.240570 21.573999 -3.766210 5.936840 38.168301 13.033200 14.578800 0.000000 26.791700 0.000000 -10.024500 -4.390770 -4.367230 11.003512 -1.776575 -16.845339 0.000000 0.000000 14.662400 5.741236 -3.540114 4.234495 0.000000 0.000000 -36.888901 9.848278 -0.830715 -8.350934 0.000000 0.000000 4.504280 4.241520 -7.969776 11.241391 0.000000 0.000000 -26.507200 
-17.669332 9.203329 41.853450 -174.691393 -36.764550 -175.154726 5.473481 -3.436038 -9.366990 8.137883 -4.277190 19.373202 0.000000 0.000000 0.000000 -11.126368 -10.241671 8.670143 2.800365 14.012971 -43.823839 -19.551300 5.312720 3.583140 -48.459801 -10.542100 28.416201 0.000000 -36.467999 0.000000 15.871700 10.085000 3.354510 21.526400 -3.767320 5.928860 38.258900 13.103900 14.698500 0.000000 27.546400 0.000000 -10.090800 -4.272870 -4.329300 10.642931 -0.666308 -16.220327 0.000000 0.000000 12.724600 4.516284 -4.531541 4.398376 0.000000 0.000000 -36.660999 9.924870 -0.223363 -8.419204 0.000000 0.000000 4.499160 4.379338 -7.948129 11.239375 0.000000 0.000000 -26.563000 
-17.676544 9.200866 41.847250 -174.628367 -36.361347 -175.066613 5.358534 -3.543872 -9.347615 8.396120 -4.327098 19.229960 0.000000 0.000000 0.000000 -11.695313 -9.498082 8.791999 3.417505 13.824107 -43.896448 -19.636299 5.265410 3.606700 -48.457298 -10.413800 28.102400 0.000000 -36.466202 0.000000 15.899900 10.075100 3.188590 21.445200 -3.663440 5.896410 38.336800 13.112700 14.743600 0.000000 28.328800 0.000000 -10.229500 -4.121810 -4.667480 10.218943 0.190586 -15.751790 0.000000 0.000000 11.335500 6.237856 -5.408687 5.749504 0.000000 0.000000 -36.749100 9.915256 0.292592 -8.508832 0.000000 0.000000 4.557300 4.436680 -8.019477 11.188214 0.000000 0.000000 -26.581200 
-17.682241 9.197399 41.841503 -174.416572 -36.035363 -175.052571 5.310836 -3.674356 -9.298192 8.676873 -4.415518 19.087134 0.000000 0.000000 0.000000 -11.677891 -9.509173 8.789870 3.226971 13.903801 -44.058464 -19.684500 5.277130 3.563600 -48.466400 -10.365400 28.030600 0.000000 -36.412399 0.000000 15.928800 10.080000 2.930830 21.434200 -3.645200 5.707410 38.341000 13.126300 14.977600 0.000000 29.275801 0.000000 -10.423900 -4.154280 -4.595010 10.196508 0.298579 -15.426815 0.000000 0.000000 10.573200 6.598934 -6.126862 7.008381 0.000000 0.000000 -35.595301 10.068356 0.552856 -8.633795 0.000000 0.000000 4.647600 4.337229 -7.989709 11.200185 0.000000 0.000000 -26.612200 
-17.689426 9.194394 41.836176 -174.202109 -35.741263 -175.046231 5.267565 -3.806728 -9.269081 8.946703 -4.511538 18.991288 0.000000 0.000000 0.000000 -11.677992 -9.489304 8.796995 3.117412 13.977828 -44.255664 -19.705999 5.218730 3.650960 -48.464802 -10.408200 27.977800 0.000000 -36.371101 0.000000 16.000601 10.130400 2.737930 21.437300 -3.636490 5.563260 38.307301 13.176500 15.251000 0.000000 30.244400 0.000000 -10.714400 -4.000160 -4.707820 10.448125 -0.477057 -15.302044 0.000000 0.000000 10.283000 7.169713 -4.876689 7.735894 0.000000 0.000000 -35.349800 10.247749 0.490407 -8.758133 0.000000 0.000000 4.750980 4.234437 -7.663144 11.245201 0.000000 0.000000 -26.621600 
-17.699393 9.191273 41.832451 -174.045020 -35.405388 -175.017820 5.265235 -3.856119 -9.249353 9.089965 -4.545412 18.922667 0.000000 0.000000 0.000000 -11.559673 -9.552166 8.744747 3.002832 14.117268 -44.323280 -19.651199 5.151740 3.815800 -48.464500 -10.640100 28.113899 0.000000 -36.237900 0.000000 16.026600 10.197600 2.546940 21.378201 -3.625890 5.634390 38.358002 13.308400 15.387800 0.000000 31.221001 0.000000 -11.099000 -3.872570 -4.950640 11.047970 -2.485504 -15.107952 0.000000 0.000000 10.018300 5.825450 -2.718102 7.914251 0.000000 0.000000 -34.670000 10.285293 0.931374 -8.885814 0.000000 0.000000 4.893490 4.349091 -7.664058 11.194636 0.000000 0.000000 -26.602900 
-17.708125 9.191066 41.829820 -174.022436 -35.078610 -174.993037 5.180208 -3.906817 -9.113699 9.105403 -4.559863 18.777547 0.000000 0.000000 0.000000 -11.397817 -9.674422 8.880792 2.975198 14.350217 -44.457953 -19.524900 5.028670 3.870130 -48.475101 -10.725000 28.303301 0.000000 -36.053398 0.000000 16.041000 10.057300 2.437460 21.459200 -3.581070 5.668650 38.358501 13.363100 15.575800 0.000000 32.167702 0.000000 -11.433300 -3.696070 -4.914050 11.170950 -2.614025 -15.202401 0.000000 0.000000 10.464200 5.300787 -2.591760 7.643025 0.000000 0.000000 -34.526600 10.175193 1.741414 -8.981992 0.000000 0.000000 5.080010 4.450754 -8.071303 11.149621 0.000000 0.000000 -26.450100 
-17.717824 9.192352 41.830376 -174.026691 -34.673756 -174.917785 5.159300 -3.890608 -8.963687 9.008657 -4.529020 18.618263 0.000000 0.000000 0.000000 -11.240562 -9.805907 8.986555 2.933982 14.547450 -44.548837 -19.410000 4.962180 3.800960 -48.435101 -10.767800 28.540800 0.000000 -35.999199 0.000000 15.921700 10.180500 2.580570 21.433399 -3.535290 5.649200 38.575298 13.436600 15.789900 0.000000 32.978100 0.000000 -11.651700 -3.538920 -5.267310 11.174720 -2.335178 -15.331744 0.000000 0.000000 10.919000 4.745739 -2.741528 7.403481 0.000000 0.000000 -34.420500 10.048814 2.496714 -9.191961 0.000000 0.000000 5.396000 4.466548 -8.411038 11.122553 0.000000 0.000000 -26.489600 
-17.729559 9.194681 41.829667 -174.072048 -34.158169 -174.836026 5.144740 -3.833583 -8.835408 8.805916 -4.467047 18.482466 0.000000 0.000000 0.000000 -11.066700 -9.922183 9.126639 2.786113 14.836115 -44.611914 -19.240499 4.904820 3.811250 -48.412800 -10.758000 28.570801 0.000000 -35.994499 0.000000 15.854500 10.062400 2.712360 21.489500 -3.533860 5.791910 38.712898 13.645200 15.984000 0.000000 33.785599 0.000000 -11.902600 -3.509680 -5.171960 11.063763 -1.882686 -15.371502 0.000000 0.000000 11.321500 4.897697 -2.775541 7.260403 0.000000 0.000000 -34.582899 9.978211 2.586078 -9.383173 0.000000 0.000000 5.747990 4.300705 -8.137704 11.150111 0.000000 0.000000 -26.536400 
-17.744828 9.197824 41.829555 -174.128319 -33.579252 -174.791778 5.219404 -3.711338 -8.727395 8.458718 -4.382031 18.471641 0.000000 0.000000 0.000000 -10.938498 -10.008393 9.231816 2.798195 15.029404 -44.775700 -19.097601 4.870650 3.966190 -48.298901 -10.877700 28.390900 0.000000 -36.096298 0.000000 15.909200 9.937390 2.782520 21.450001 -3.473050 5.657950 39.060398 13.707300 16.256599 0.000000 34.432598 0.000000 -11.792900 -3.335510 -4.969640 10.904275 -1.543771 -15.396827 0.000000 0.000000 11.847000 5.344970 -2.497883 7.110931 0.000000 0.000000 -34.771200 9.891977 2.563640 -9.501487 0.000000 0.000000 6.067770 4.090048 -7.712371 11.192948 0.000000 0.000000 -26.539700 
-17.761769 9.200601 41.830704 -174.159693 -32.940752 -174.796537 5.304887 -3.572578 -8.561422 8.159709 -4.282491 18.470124 0.000000 0.000000 0.000000 -10.751128 -10.237296 9.356572 2.677465 15.213580 -45.084272 -18.998600 4.918920 3.997840 -48.210701 -10.969900 28.230499 0.000000 -36.306099 0.000000 15.968400 10.152700 2.740000 21.402000 -3.467800 5.439720 39.358501 13.714700 16.648600 0.000000 35.152100 0.000000 -11.898400 -3.191500 -4.912660 10.745279 -1.235394 -15.444180 0.000000 0.000000 12.513700 5.573914 -2.113650 6.887599 0.000000 0.000000 -34.710800 9.824288 2.525913 -9.558804 0.000000 0.000000 6.307600 3.878297 -7.262337 11.311154 0.000000 0.000000 -26.663800 
-17.780052 9.201498 41.834695 -174.130157 -32.308763 -174.779505 5.446144 -3.432277 -8.422808 7.880934 -4.184673 18.382353 0.000000 0.000000 0.000000 -10.650075 -10.316398 9.437110 2.617756 15.370962 -45.234368 -18.839399 4.924590 4.003710 -48.230999 -10.960800 28.105000 0.000000 -36.474998 0.000000 16.149500 10.139200 2.621330 21.342600 -3.422690 5.510860 39.522499 13.824400 16.856400 0.000000 35.884102 0.000000 -12.012400 -3.226560 -5.511000 10.623175 -0.861603 -15.589008 0.000000 0.000000 13.219300 5.591245 -1.842534 6.645851 0.000000 0.000000 -34.554100 9.749135 2.808626 -9.713511 0.000000 0.000000 6.606340 3.800828 -7.064506 11.378230 0.000000 0.000000 -26.877600 
-17.798762 9.202024 41.835983 -174.103261 -31.577958 -174.795167 5.492988 -3.274710 -8.307551 7.763443 -4.044825 18.348726 0.000000 0.000000 0.000000 -10.776004 -10.175620 9.484010 2.950154 15.259376 -45.296880 -18.775999 4.950520 4.002690 -48.238602 -10.975400 27.930201 0.000000 -36.646702 0.000000 16.279800 10.167500 2.787420 21.222099 -3.319220 5.629870 39.630402 13.884300 17.071600 0.000000 36.553001 0.000000 -12.204000 -3.103140 -5.680280 10.507403 -0.277711 -15.650789 0.000000 0.000000 13.929200 5.434336 -1.794994 6.339354 0.000000 0.000000 -34.357901 9.632943 3.385813 -9.821152 0.000000 0.000000 6.911120 3.783420 -6.985960 11.418599 0.000000 0.000000 -27.112300 
